<svg width="29" height="28" fill="none" xmlns="http://www.w3.org/2000/svg"><circle opacity=".06" cx="14.641" cy="14" r="14" fill="#fff"/><g opacity=".7" clip-path="url(#clip0)"><path d="M21.824 10.25a1.879 1.879 0 00-1.322-1.321c-1.174-.322-5.87-.322-5.87-.322s-4.694 0-5.868.31c-.63.172-1.15.691-1.322 1.334-.31 1.174-.31 3.608-.31 3.608s0 2.446.31 3.607a1.88 1.88 0 001.322 1.322c1.186.322 5.869.322 5.869.322s4.695 0 5.869-.31a1.88 1.88 0 001.322-1.321c.309-1.174.309-3.608.309-3.608s.012-2.447-.31-3.62zm-8.686 5.857V11.61l3.904 2.249-3.904 2.248z" fill="#fff" fill-opacity=".8"/></g><defs><clipPath id="clip0"><path fill="#fff" transform="translate(6.64 6)" d="M0 0h16v16H0z"/></clipPath></defs></svg>