<svg width="12" height="9" fill="none" xmlns="http://www.w3.org/2000/svg"><path d="M7.531 8.41h0a.313.313 0 01-.441 0v-.001a.313.313 0 010-.441l3.285-3.285H1.37a.312.312 0 010-.625h9.004L7.09.773s0 0 0 0a.312.312 0 01.441-.441h0l3.817 3.818c.03.029.053.063.07.102l-.094.038M7.531 8.41l3.818-3.818a.318.318 0 00.067-.1h0V4.49a.31.31 0 000-.239l-.092.039M7.531 8.41l3.818-3.818L7.53 8.409zm3.793-4.12a.21.21 0 010 .162l-.046-.231c.02.02.036.043.046.069z" fill="#000" stroke="#000" stroke-width=".2"/></svg>