<svg width="107" height="23" fill="none" xmlns="http://www.w3.org/2000/svg"><path d="M96.541 22.793c3.406-.024 6.803-.056 10.209-.08 0-1.757 0-3.514-.008-5.27H88.064v-3.38a3282.05 3282.05 0 0117.66-.08V9.18c-3.179 0-3.877.016-5.81 0-1.96-.024-3.92-.008-5.879-.008h-5.937v-2.85c.008-.016.042-.047.076-.08.033-.03.067-.078.1-.078l18.476-.072V.813a6.45 6.45 0 00-.555-.031C98.072.766 89.956.758 81.833.75c-.26 0-.522.087-.824.142v21.861c.403.04.757.11 1.118.11 4.802-.015 9.612-.039 14.414-.07zm-48.826.015V.854c.345-.04.614-.103.883-.103 6.904.024 13.808.024 20.72.103 1.388.016 2.784.23 4.147.49 2.455.483 3.893 2.011 4.364 4.275.303 1.456.454 2.952.547 4.432.151 2.5-.06 5.002-.505 7.471-.446 2.454-1.825 4.124-4.533 4.757-2.068.483-4.154.507-6.248.515-5.55.023-11.1.008-16.65.008-.85.008-1.69.008-2.725.008zm22.773-6.68c.151-.427.487-.957.513-1.495.084-1.837.269-3.705.016-5.517-.235-1.757-.538-2.145-2.623-2.58-.724-.15-1.48-.167-2.22-.174-3.591-.016-7.19-.016-10.781-.016-.177 0-.345.063-.623.118v10.559c.202.079.286.134.379.134 3.877 0 7.745.024 11.622-.031 1.244-.008 2.497-.198 3.717-.998z" fill="#000"/><path fill-rule="evenodd" clip-rule="evenodd" d="M28.005 22.807h8.132c-4.12-7.48-8.124-14.73-12.118-21.963H12.902L11.606 3.17 8.848 8.125c-.68 1.223-1.364 2.446-2.047 3.669-.684 1.223-1.367 2.445-2.048 3.668a337.74 337.74 0 01-1.539 2.73c-.829 1.46-1.66 2.925-2.464 4.417 4.247 0 4.667-.016 8.216-.016a958.927 958.927 0 001.784-3.26l.091-.167H25.97l1.09 1.952.945 1.69zm-4.65-8.595h-9.848l4.659-8.342 5.189 8.342z" fill="#000"/><path d="M37.102.813h7.308c.286 1.052.278 21.069.009 21.947h-7.316V.812z" fill="#000"/></svg>